<?xml version="1.0"?>
<svg xmlns="http://www.w3.org/2000/svg" height="512px" viewBox="0 0 368 368" width="512px"><path d="m312 0h-64c-30.878906 0-56 25.121094-56 56v16c0 13.230469-10.769531 24-24 24h-96c-13.230469 0-24-10.769531-24-24 0-4.414062-3.585938-8-8-8s-8 3.585938-8 8v88h-24c-4.414062 0-8 3.585938-8 8s3.585938 8 8 8h24v176h-24c-4.414062 0-8 3.574219-8 8s3.585938 8 8 8h352c4.414062 0 8-3.574219 8-8v-304c0-30.878906-25.121094-56-56-56zm-240 112h96c9.039062 0 17.296875-3.128906 24-8.207031v56.207031h-144v-56.207031c6.703125 5.078125 14.960938 8.207031 24 8.207031zm-24 64h144v176h-144zm256 176h-48v-88c0-13.230469 10.769531-24 24-24s24 10.769531 24 24zm48 0h-32v-88c0-22.054688-17.945312-40-40-40s-40 17.945312-40 40v88h-32v-296c0-22.054688 17.945312-40 40-40h64c22.054688 0 40 17.945312 40 40zm0 0" fill="#23c2ba"/><path d="m152 224h-64c-4.414062 0-8 3.574219-8 8v64c0 4.425781 3.585938 8 8 8h64c4.414062 0 8-3.574219 8-8v-64c0-4.425781-3.585938-8-8-8zm-8 64h-48v-48h48zm0 0" fill="#23c2ba"/><path d="m312 64h-64c-4.414062 0-8 3.585938-8 8v96c0 4.414062 3.585938 8 8 8h64c4.414062 0 8-3.585938 8-8v-96c0-4.414062-3.585938-8-8-8zm-8 96h-48v-80h48zm0 0" fill="#23c2ba"/></svg>
